<?xml version="1.0" standalone="no"?>
<!DOCTYPE svg PUBLIC "-//W3C//DTD SVG 20010904//EN"
 "http://www.w3.org/TR/2001/REC-SVG-20010904/DTD/svg10.dtd">
<svg version="1.0" xmlns="http://www.w3.org/2000/svg"
 width="869.000000pt" height="869.000000pt" viewBox="0 0 869.000000 869.000000"
 preserveAspectRatio="xMidYMid meet">
<metadata>
Created by potrace 1.11, written by Peter Selinger 2001-2013
</metadata>
<g transform="translate(0.000000,869.000000) scale(0.100000,-0.100000)"
fill="#000000" stroke="none">
<path d="M4251 8626 c-8 -10 -7 -17 3 -26 17 -13 36 -6 36 15 0 19 -27 26 -39
11z"/>
<path d="M4250 8548 c0 -61 -183 -179 -389 -251 -51 -18 -92 -37 -92 -42 1 -6
30 -11 65 -13 l64 -3 4 -37 c4 -32 0 -41 -27 -68 -41 -39 -197 -115 -232 -113
-4 0 -9 -4 -11 -10 -2 -6 21 -11 54 -13 l57 -3 2 -38 c3 -32 -2 -41 -33 -67
-45 -37 -124 -77 -179 -90 -24 -6 -43 -17 -43 -24 0 -8 14 -13 43 -13 81 -1
75 14 73 -155 l-1 -153 -47 -1 c-69 -2 -78 -8 -78 -51 l0 -39 -122 -37 c-150
-47 -324 -115 -440 -173 l-86 -43 -59 20 c-67 22 -308 140 -338 164 -14 11
-16 18 -7 21 13 6 17 34 5 34 -5 0 -16 -7 -27 -15 -20 -15 -44 -3 -148 72 -41
30 -46 37 -38 54 9 16 7 19 -10 19 -11 0 -20 -5 -20 -11 0 -33 -224 167 -363
325 -34 38 -68 75 -74 82 -7 7 -11 19 -8 26 5 13 -53 93 -62 84 -3 -3 -15 7
-28 22 -30 34 -45 20 -22 -20 9 -16 15 -34 11 -39 -7 -12 45 -79 61 -79 31 0
221 -373 265 -520 5 -18 2 -31 -13 -47 -24 -26 -15 -43 13 -25 17 10 20 7 34
-36 8 -26 22 -74 30 -107 l15 -60 -27 -21 c-31 -26 -23 -42 12 -26 27 12 29 7
42 -108 3 -30 8 -58 10 -61 2 -3 6 -66 9 -140 l6 -134 -47 -50 c-159 -170
-267 -303 -385 -474 -43 -63 -46 -65 -119 -86 -41 -12 -131 -39 -200 -60 -69
-21 -138 -41 -155 -45 -16 -5 -61 -18 -100 -30 -38 -12 -74 -22 -80 -24 -31
-8 -173 -50 -255 -76 -52 -16 -129 -39 -170 -51 -41 -11 -79 -24 -83 -28 -7
-7 143 -191 231 -283 22 -23 32 -41 27 -46 -6 -5 -47 -24 -93 -42 -45 -18 -85
-36 -88 -41 -5 -9 0 -16 331 -398 116 -133 217 -252 225 -264 12 -17 15 -59
16 -211 0 -170 6 -280 19 -394 3 -21 7 -57 10 -82 3 -25 8 -56 10 -70 3 -14 7
-36 10 -50 216 -1156 1043 -2085 2161 -2428 204 -63 357 -94 604 -121 178 -20
519 -18 665 4 17 2 50 7 75 10 109 15 143 21 278 51 108 24 332 91 397 119 17
7 50 20 75 30 79 31 312 146 378 186 35 21 66 39 68 39 13 0 332 224 354 249
3 3 39 35 80 71 294 256 543 576 724 931 46 90 88 178 94 194 6 17 29 76 50
133 22 56 41 106 42 110 2 4 4 12 6 17 55 173 106 410 128 595 19 159 25 408
13 530 -21 215 -21 200 7 283 32 94 97 227 158 322 l45 71 80 1 c133 2 234 54
300 153 40 60 55 108 55 183 2 234 -251 394 -486 307 -54 -21 -136 -75 -136
-91 0 -26 -90 7 -308 113 -100 49 -127 67 -146 96 -213 337 -361 519 -586 718
-88 77 -107 99 -97 109 7 7 34 45 60 84 32 47 55 71 68 71 10 0 19 4 19 9 0
17 -354 271 -364 261 -6 -6 -5 -15 2 -23 9 -11 -2 -30 -56 -94 l-68 -80 -84
50 c-222 132 -489 251 -709 316 -113 34 -114 34 -117 57 -5 36 -12 40 -57 37
l-45 -3 2 157 1 158 35 1 c74 2 76 3 60 17 -8 7 -41 21 -73 31 -31 9 -85 36
-120 60 -57 39 -62 45 -65 83 -3 41 -3 41 30 41 75 -1 108 2 108 11 0 4 -30
18 -67 30 -73 24 -155 70 -189 106 -15 16 -19 31 -16 59 l4 36 59 0 c75 0 78
18 8 43 -84 30 -254 115 -327 164 -45 29 -78 60 -92 84 -24 44 -40 50 -40 17z
m59 -88 c26 -25 98 -67 194 -115 84 -41 150 -75 147 -75 -9 -2 -693 -2 -735 0
l-40 2 30 10 c30 10 59 22 133 55 58 26 164 97 196 132 17 17 30 31 31 31 1 0
21 -18 44 -40z m301 -260 c0 -38 -1 -40 -32 -40 -18 -1 -171 -2 -340 -3 l-308
-2 0 43 0 42 340 0 340 0 0 -40z m49 -97 c14 -12 45 -33 68 -45 24 -13 43 -25
43 -28 0 -3 -225 -5 -500 -5 -275 0 -500 3 -500 7 0 5 4 8 9 8 5 0 39 20 75
44 l66 44 332 1 c182 1 333 3 335 5 9 8 49 -9 72 -31z m85 -134 c-1 -16 -2
-32 -3 -36 0 -5 -217 -8 -481 -8 l-481 0 -6 22 c-13 54 -33 52 489 52 l483 -1
-1 -29z m86 -123 l79 -53 -644 0 -644 0 57 37 c31 20 62 43 69 51 9 12 92 14
508 16 l496 2 79 -53z m75 -238 l0 -156 -97 1 -98 0 0 103 c0 69 -4 105 -12
111 -11 8 -119 10 -175 4 -10 -1 -13 -30 -13 -110 l0 -110 -67 2 -68 2 -3 108
c-1 59 -6 108 -10 108 -37 7 -179 3 -184 -6 -4 -5 -8 -56 -8 -111 l0 -101 -69
0 -69 0 0 103 c0 57 -2 107 -5 111 -3 5 -48 9 -99 8 l-93 0 -3 -111 -3 -112
-97 0 -97 0 0 152 c-1 83 2 153 6 156 4 3 290 5 636 5 l628 0 0 -157z m-2817
-109 c34 -29 62 -53 62 -55 0 -2 -116 -86 -136 -97 -7 -4 -23 25 -43 81 -17
48 -57 140 -89 204 l-58 117 100 -99 c56 -54 129 -122 164 -151z m1917 51 l0
-95 -72 -2 c-40 -1 -73 1 -74 5 0 4 -1 48 -2 99 l-2 92 75 -2 75 -2 0 -95z
m336 76 c1 -26 1 -135 0 -158 -1 -14 -12 -16 -71 -15 l-70 1 0 97 0 97 70 0
c64 0 70 -2 71 -22z m339 -76 l0 -96 -70 -1 c-79 -1 -71 -11 -72 97 0 108 -7
99 72 97 l70 -1 0 -96z m-2392 -199 l74 -49 -23 -16 c-31 -22 -35 -21 -88 17
-66 47 -75 49 -113 21 -57 -42 -58 -47 -31 -122 l24 -67 -28 -22 -28 -23 -9
32 c-5 18 -19 68 -31 110 l-22 77 81 59 c74 54 83 59 101 46 11 -7 53 -36 93
-63z m2719 29 c1 -25 2 -51 2 -57 1 -7 7 -13 14 -13 18 0 160 -44 267 -82 134
-49 392 -170 480 -227 32 -20 98 -58 129 -73 20 -10 25 -9 37 7 8 11 23 29 32
40 9 11 44 52 76 92 34 41 64 69 70 66 15 -10 187 -135 206 -150 8 -7 24 -19
34 -26 18 -14 15 -20 -62 -130 -45 -64 -82 -120 -82 -125 0 -5 28 -31 63 -59
81 -66 268 -256 353 -358 81 -98 175 -232 244 -346 42 -71 55 -86 71 -82 11 3
22 9 25 14 3 5 50 -14 106 -42 128 -64 310 -141 389 -165 34 -10 63 -24 66
-30 2 -7 -5 -22 -17 -34 -28 -28 -22 -42 31 -62 24 -9 38 -17 32 -17 -18 -1
-16 -26 2 -41 8 -7 15 -23 15 -36 0 -13 5 -24 11 -24 7 0 0 -11 -15 -25 -34
-32 -29 -50 13 -48 24 1 36 -5 48 -23 15 -23 14 -27 -12 -62 -129 -176 -264
-434 -279 -535 -3 -25 -16 -32 -59 -36 -5 -1 -6 -4 -3 -9 2 -4 7 -39 11 -77 4
-39 10 -101 14 -139 11 -98 1 -419 -14 -476 -2 -8 -6 -40 -10 -70 -6 -64 -11
-89 -30 -185 -100 -492 -333 -973 -659 -1360 -99 -118 -347 -357 -446 -430
-15 -11 -54 -40 -86 -64 -147 -113 -413 -263 -614 -348 -193 -82 -403 -144
-630 -188 -140 -27 -382 -49 -535 -49 -91 0 -317 12 -355 18 -14 2 -48 7 -77
10 -155 17 -395 76 -596 145 -530 184 -1030 543 -1381 992 -89 115 -203 284
-257 382 -45 81 -138 265 -138 272 0 3 -10 26 -21 52 -25 57 -107 293 -121
348 -6 22 -15 58 -20 80 -6 22 -13 51 -15 65 -3 14 -9 41 -14 60 -5 19 -12 52
-16 74 -3 21 -7 46 -9 55 -1 9 -6 41 -10 71 -4 30 -9 63 -11 73 -15 80 -24
463 -13 530 7 42 0 52 -45 56 -7 0 -41 35 -75 76 -34 41 -68 80 -74 87 -7 7
-82 94 -167 193 -85 99 -165 191 -177 205 -30 32 -29 41 2 27 14 -7 25 -15 25
-19 0 -5 4 -8 10 -8 5 0 33 -14 62 -31 29 -18 73 -43 98 -57 149 -82 248 -147
270 -177 25 -34 83 -56 101 -38 5 5 11 33 15 63 4 30 10 64 14 75 13 39 6 79
-15 83 -29 6 -75 41 -75 58 0 8 9 32 20 54 32 62 27 84 -22 109 -53 25 -68 37
-97 79 -26 38 -46 40 -78 10 -19 -18 -28 -20 -51 -12 -27 9 -29 20 -23 81 1
11 16 8 163 -34 12 -4 18 0 18 10 0 10 -26 22 -85 38 -76 21 -84 26 -79 44 18
60 86 76 123 29 12 -15 21 -33 21 -40 0 -34 28 -9 44 39 33 94 95 215 122 236
16 13 41 21 64 21 38 0 126 -40 123 -56 -1 -5 -21 -52 -46 -104 -24 -52 -57
-130 -73 -172 -16 -43 -33 -76 -39 -75 -17 6 -17 47 0 89 19 48 13 74 -19 82
-13 3 -29 19 -36 35 -10 25 -9 35 4 62 20 39 20 39 0 39 -20 0 -44 -58 -37
-93 3 -15 21 -40 40 -56 l34 -28 -20 -50 c-16 -41 -17 -54 -8 -73 16 -31 56
-58 90 -62 27 -3 29 1 66 97 21 55 58 143 83 196 l46 97 -62 40 c-33 23 -72
45 -86 50 -37 13 -105 8 -134 -11 -30 -20 -84 -110 -115 -194 l-23 -63 -30 25
c-57 48 -133 23 -159 -53 -7 -20 -12 -41 -11 -45 1 -5 -2 -5 -9 -2 -10 7 -8
31 7 69 13 33 -24 15 -37 -18 l-14 -34 -63 36 -64 35 6 47 c5 37 3 47 -9 47
-8 0 -15 -7 -16 -16 -1 -23 -7 -52 -11 -57 -6 -6 -158 76 -158 85 0 5 10 11
22 14 13 2 48 12 78 20 30 9 79 23 108 31 l54 15 -6 -25 c-4 -13 -9 -44 -13
-69 -5 -38 -3 -45 11 -45 11 0 16 9 17 28 0 15 2 36 4 47 7 33 13 70 14 76 1
3 7 6 14 7 17 1 43 8 120 32 38 12 71 19 74 16 3 -3 0 -25 -6 -50 -14 -58 -14
-66 3 -66 9 0 17 16 21 43 16 92 15 90 53 102 21 6 23 4 19 -22 -20 -115 -20
-114 -5 -108 9 4 19 31 26 67 6 34 17 67 24 73 7 7 49 22 93 34 44 12 97 29
118 37 20 7 38 13 40 13 1 -1 40 10 87 25 76 23 86 24 107 11 12 -8 27 -15 32
-15 5 0 39 44 74 98 87 129 227 303 331 410 83 85 84 87 67 107 -15 16 -20 43
-25 130 -6 119 -22 257 -36 320 -5 22 -10 43 -10 46 0 10 295 229 308 229 6 0
35 -14 64 -30 74 -42 190 -97 278 -132 43 -17 86 -42 100 -58 l25 -28 75 37
c181 89 505 211 562 211 16 0 19 6 18 38 -1 20 -2 53 -1 72 l1 35 748 0 747 0
2 -45z m-2769 -104 c23 -14 42 -28 42 -30 0 -2 -28 -25 -62 -51 -53 -39 -64
-43 -67 -28 -2 10 -7 23 -11 28 -5 6 -11 26 -15 46 -6 33 -4 38 26 57 19 11
36 17 39 13 3 -4 24 -20 48 -35z m5570 -1479 c167 -58 252 -246 182 -404 -49
-111 -158 -182 -288 -189 l-74 -3 17 25 c19 29 20 31 109 139 68 82 74 99 54
138 -24 46 -28 57 -28 71 0 7 -7 19 -15 26 -8 7 -15 21 -15 31 0 11 -3 19 -7
20 -5 0 -44 2 -88 4 -80 3 -215 38 -215 55 0 22 124 88 195 104 35 7 129 -2
173 -17z m-154 -172 c58 -1 71 -4 71 -18 0 -9 6 -22 13 -29 6 -6 12 -18 12
-25 0 -13 5 -25 29 -71 11 -21 9 -29 -14 -60 -53 -75 -74 -95 -90 -82 -8 7
-15 19 -15 26 0 14 -12 18 -40 14 -11 -1 -10 3 5 20 16 17 17 24 7 40 -7 11
-12 26 -12 34 0 8 -5 16 -11 18 -8 3 -8 10 2 25 16 26 11 32 -27 39 -55 9 -57
12 -35 40 11 15 18 31 14 37 -4 6 -1 7 7 2 7 -4 45 -9 84 -10z m-6790 -171
c54 -29 61 -36 62 -65 3 -63 75 -90 122 -46 23 22 24 22 37 2 25 -35 59 -66
97 -86 31 -16 36 -23 32 -45 -3 -15 -11 -39 -19 -55 -21 -40 -18 -65 10 -92
24 -22 25 -26 15 -78 -23 -114 -16 -108 -59 -58 -21 24 -82 96 -137 159 -54
63 -108 126 -119 139 -11 13 -27 31 -35 40 -16 17 -127 144 -170 195 -14 17
-44 51 -67 77 -24 25 -43 48 -43 51 0 5 145 -67 274 -138z m-28 -224 c-3 -15
-8 -40 -12 -55 -10 -38 18 -29 31 11 5 16 10 31 12 33 1 2 15 -11 30 -29 52
-62 54 -66 42 -94 l-11 -24 -62 35 c-33 19 -69 37 -79 40 -15 5 -18 12 -12 39
5 27 3 34 -10 34 -8 0 -15 -6 -15 -14 0 -27 -16 -25 -70 6 l-55 31 85 33 85
33 23 -26 c17 -19 22 -34 18 -53z m219 -228 c-2 -2 -25 9 -53 25 -44 25 -48
31 -40 52 8 23 9 23 52 -25 25 -27 43 -50 41 -52z"/>
<path d="M2309 7124 c-102 -52 -138 -154 -102 -294 17 -71 75 -170 98 -170 4
0 35 24 68 54 60 52 204 162 286 219 l41 28 -17 31 c-28 48 -113 117 -172 139
-69 25 -144 23 -202 -7z m217 -30 c18 -9 49 -30 70 -48 l37 -32 -84 -59 c-46
-32 -86 -61 -89 -64 -6 -7 -146 -120 -172 -139 -16 -12 -20 -9 -39 35 -26 61
-35 159 -20 206 39 118 168 162 297 101z"/>
<path d="M6114 7060 c-23 -9 -84 -86 -84 -107 0 -18 37 -53 55 -53 20 0 82 66
94 101 7 21 6 30 -7 42 -27 23 -36 25 -58 17z m36 -42 c-1 -32 -54 -92 -74
-85 -24 10 -19 28 19 70 39 42 55 47 55 15z"/>
<path d="M4000 7042 c-21 -2 -84 -13 -234 -39 -81 -14 -297 -80 -416 -128
-562 -225 -1023 -637 -1311 -1170 -136 -252 -150 -328 -76 -420 35 -44 50 -51
240 -115 l158 -53 -31 -18 c-35 -21 -35 -23 -15 -42 13 -13 23 -12 83 5 l68
20 788 -261 c526 -174 803 -261 830 -261 48 0 112 28 143 61 57 62 54 7 53
1172 -1 689 -6 1087 -12 1115 -14 59 -74 117 -136 131 -44 10 -66 11 -132 3z"/>
<path d="M4509 6981 c-71 -22 -122 -71 -137 -134 -7 -28 -12 -402 -13 -1104
l-2 -1061 24 -48 c30 -61 87 -102 151 -110 38 -5 72 2 190 41 416 136 1737
571 1822 601 124 43 150 62 182 134 26 59 14 121 -48 250 -189 396 -505 759
-873 1006 -217 145 -478 268 -720 338 -215 62 -510 106 -576 87z"/>
<path d="M6185 6929 c-37 -49 -38 -52 -24 -78 24 -43 61 -40 101 11 47 58 52
74 28 98 -34 34 -62 25 -105 -31z m89 13 c9 -15 -55 -93 -73 -90 -23 5 -20 25
9 64 24 32 53 44 64 26z"/>
<path d="M1880 5070 c-70 -20 -126 -71 -143 -129 -14 -50 -46 -246 -53 -331
-13 -151 -8 -460 10 -557 2 -10 7 -43 11 -73 11 -89 71 -327 110 -440 72 -205
169 -401 292 -588 50 -75 81 -117 186 -247 18 -22 87 -95 155 -162 144 -143
197 -174 279 -168 74 5 113 36 205 162 96 132 449 621 688 953 97 135 241 335
320 445 80 110 152 216 162 235 38 73 11 184 -59 237 -23 18 -137 59 -366 131
-884 277 -1196 375 -1242 389 -27 8 -90 27 -140 43 -328 104 -369 114 -415
100z"/>
<path d="M6657 5068 c-20 -4 -131 -37 -245 -74 -114 -36 -254 -81 -312 -99
-58 -18 -163 -52 -235 -75 -71 -23 -222 -71 -335 -107 -113 -36 -266 -84 -340
-108 -74 -24 -235 -75 -357 -114 -207 -67 -223 -74 -256 -111 -20 -21 -41 -57
-47 -78 -11 -45 -6 -112 13 -144 6 -12 272 -379 589 -817 318 -438 586 -807
595 -821 91 -126 141 -162 222 -162 73 1 119 30 244 155 437 437 692 980 752
1605 9 102 7 370 -5 477 -20 183 -46 317 -71 366 -17 33 -80 99 -97 99 -4 0
-23 4 -42 8 -19 5 -52 5 -73 0z"/>
<path d="M4225 4098 c-48 -17 -90 -63 -208 -233 -61 -88 -136 -195 -167 -237
-30 -42 -107 -151 -170 -242 -63 -91 -264 -374 -446 -630 -197 -277 -334 -478
-338 -497 -15 -76 6 -151 55 -196 36 -32 258 -145 389 -196 173 -69 423 -136
566 -152 32 -4 67 -9 76 -11 38 -7 208 -17 293 -17 214 0 484 35 670 88 50 14
97 27 105 29 163 45 523 213 607 285 56 48 81 145 54 214 -9 23 -81 132 -114
172 -4 6 -60 82 -123 170 -63 88 -159 221 -213 295 -103 140 -249 341 -393
539 -46 63 -110 151 -143 197 -33 45 -100 137 -150 205 -119 163 -142 189
-190 210 -44 20 -113 23 -160 7z"/>
<path d="M6815 8372 c-17 -15 -54 -46 -82 -70 -77 -64 -80 -117 -9 -161 44
-28 70 -26 102 6 35 35 54 83 58 148 7 108 -12 129 -69 77z m41 -81 c-3 -58
-30 -114 -62 -132 -22 -11 -29 -11 -52 3 -42 26 -49 44 -30 75 22 37 131 123
139 110 4 -5 6 -31 5 -56z"/>
<path d="M6630 8140 c0 -14 72 -79 88 -80 21 0 14 14 -26 53 -37 36 -62 47
-62 27z"/>
<path d="M6600 8082 c0 -4 5 -13 11 -19 8 -8 4 -20 -15 -46 -29 -38 -32 -47
-13 -47 7 0 23 14 36 31 13 17 29 28 37 25 26 -10 27 18 0 41 -27 23 -56 31
-56 15z"/>
<path d="M6814 7978 c-7 -43 -13 -53 -29 -53 -17 0 -20 8 -23 48 -2 33 -7 47
-18 47 -10 0 -14 -12 -14 -41 0 -23 -7 -47 -15 -56 -20 -19 -19 -20 30 -25 80
-9 150 -61 169 -125 5 -14 12 -20 22 -16 8 3 13 11 10 19 -4 9 7 12 40 11 27
-1 50 3 56 10 13 16 16 15 -56 17 -33 1 -61 6 -63 11 -2 6 20 25 47 44 28 19
49 39 48 43 -6 16 -17 12 -70 -22 -71 -46 -82 -28 -29 45 38 55 45 80 18 69
-7 -2 -28 -28 -46 -58 -37 -57 -66 -66 -57 -17 18 90 18 101 4 101 -10 0 -18
-17 -24 -52z"/>
<path d="M6506 7898 c-13 -24 -27 -59 -31 -79 -8 -43 9 -113 38 -153 l21 -29
-71 -66 c-105 -99 -303 -284 -326 -303 -10 -10 -17 -24 -14 -31 6 -15 321
-247 335 -247 4 0 23 26 42 58 18 31 50 84 70 117 21 33 40 70 44 83 6 19 14
22 54 22 36 0 52 6 75 28 23 22 38 27 82 28 80 2 86 6 74 50 -6 20 -12 45 -14
56 -11 58 -14 59 -73 58 -88 -2 -85 -4 -67 30 18 35 19 40 3 40 -7 0 -23 -18
-36 -40 -13 -23 -28 -40 -35 -39 -40 5 -47 -1 -47 -39 0 -21 -6 -44 -12 -50
-7 -7 -13 -36 -14 -65 -1 -41 -8 -64 -36 -107 -19 -30 -50 -84 -69 -119 -19
-35 -40 -66 -46 -68 -7 -3 -27 7 -44 21 -17 14 -35 26 -40 26 -5 0 23 42 63
93 93 117 128 164 128 171 0 18 -32 1 -52 -26 -58 -84 -161 -208 -172 -208
-21 1 -82 58 -71 68 6 4 79 62 163 127 101 78 150 121 143 128 -7 7 -35 -9
-83 -47 -40 -31 -115 -88 -165 -127 l-93 -71 -35 22 c-33 21 -45 44 -26 52 5
2 36 29 70 61 34 31 70 57 80 57 33 0 301 123 301 138 0 19 -13 19 -48 1 -114
-58 -222 -107 -222 -100 0 5 34 39 76 77 75 68 76 69 135 70 32 0 62 3 65 7
14 14 -10 27 -41 23 -44 -6 -52 6 -20 30 31 24 33 46 3 42 -18 -2 -28 6 -45
42 -34 67 -29 121 19 191 16 25 15 39 -3 39 -5 0 -19 -19 -33 -42z m358 -490
c12 -42 12 -47 -3 -51 -34 -8 -102 2 -128 21 -15 10 -39 22 -53 25 -17 4 -26
13 -26 27 0 24 -7 22 90 26 43 2 81 6 84 9 10 9 21 -9 36 -57z m-146 -56 c21
-14 22 -16 6 -33 -11 -12 -31 -19 -56 -19 -36 0 -38 2 -38 30 0 23 6 33 23 39
23 9 25 8 65 -17z"/>
<path d="M6675 7793 l-48 -67 12 -45 c16 -62 27 -71 76 -71 48 0 81 22 135 91
l32 39 -18 46 c-21 55 -46 74 -99 74 -39 0 -44 -3 -90 -67z m143 28 c2 -1 10
-17 18 -37 14 -34 14 -38 -4 -58 -10 -11 -32 -36 -47 -53 -23 -27 -36 -33 -66
-33 -36 0 -39 3 -50 39 -11 37 -10 41 27 95 41 59 42 60 122 47z"/>
<path d="M229 5327 c-149 -49 -167 -247 -29 -317 116 -59 250 26 250 158 0
111 -115 194 -221 159z m130 -44 c35 -26 71 -97 65 -131 -14 -79 -73 -132
-147 -132 -150 0 -197 202 -62 271 47 24 104 21 144 -8z"/>
</g>
</svg>
