<svg xmlns="http://www.w3.org/2000/svg" viewBox="0 0 680.8 326.69"><defs><style>.cls-1{fill:#26ade3;}.cls-2{fill:#28ade2;}</style></defs><g id="Layer_2" data-name="Layer 2"><g id="Layer_1-2" data-name="Layer 1"><path class="cls-1" d="M0,9C7.33,6.28,14.6,3.41,22,1c5.65-1.85,6-1.49,5.76,4.44-1.19,25-1.22,49.93-.55,74.88,1,36.1,3.68,72.09,7.49,108,.49,4.63.95,9.27,1.27,13.91.18,2.53,1,3.33,3.76,3.07,40.31-3.82,78.38,4.53,114.81,21.47a74.16,74.16,0,0,1,14.83,9.2c11.24,8.92,13.4,18.84,7,31.77-4.1,8.24-10.39,14.65-17.58,20.15-22.6,17.29-48.73,26.44-76.22,32a306.17,306.17,0,0,1-67.48,6.49c-4.64-.11-6.2-1.41-6.61-6.15C6.11,293,3.4,265.88.79,238.71c-.16-1.64-.52-3.26-.79-4.89ZM63,242.7c2.25,15.95,4.57,31.9,6.71,47.87.46,3.44,1.74,3.36,4.07,1.65,2.94-2.17,6-4.23,8.93-6.39,10.6-7.74,21.36-15.28,31.42-23.75,2.47-2.08,3.69-3.69-.54-5.39-15.43-6.21-30.93-12.2-46.78-17.26C63.3,238.32,62.52,239.58,63,242.7Z"/><path class="cls-2" d="M680.8,307.78c-8.29.33-8.52.35-9.34-7.72-2.32-22.8-4.46-45.62-6.63-68.44q-2.37-25.05-4.64-50.11a44.14,44.14,0,0,0-.3-4.48c-.86-4.21,1.26-5.6,5-5.85,5.3-.35,10.59-.87,15.88-1.32Z"/><path class="cls-1" d="M399.83,43.39c-1.62,39.5,1.13,78.86,4.25,118.2,1.07,13.43,2.64,26.82,3.84,40.24.27,3,1.27,3.75,4.41,3.48,43.34-3.73,84,5.31,122.22,25.89a41.65,41.65,0,0,1,4.54,3.08c14.45,10.49,16.8,22.39,7,37.49-8.33,12.81-20.62,21.1-33.79,28.17-22.88,12.26-47.48,19.05-73,22.8a349.92,349.92,0,0,1-51.74,3.95c-5.06,0-6.86-1.51-7.27-6.62C378.36,297,376.17,274,374,251c-3.14-32.79-7-65.51-11.41-98.15-4.73-35.12-10-70.16-16.68-105-1.41-7.35-2.88-14.69-4.48-22-.5-2.26-.35-3.81,2.07-4.78C359.69,14.58,375.89,8,392.11,1.49c.91-.37,1.95-.45,2.88-.8,3.7-1.41,5-.33,4.92,3.75C399.69,17.42,399.83,30.41,399.83,43.39ZM434.93,242q3.45,24.68,6.92,49.36c.6,4.26,2.8,1.55,4.07.66,8-5.63,16-11.31,23.9-17.17,5.73-4.27,11.23-8.84,16.82-13.3,2.16-1.72,2.72-3.22-.46-4.55-15.66-6.54-31.53-12.5-47.71-17.64C435.94,238.54,434.53,239,434.93,242Z"/><path class="cls-2" d="M270.93,290.78c-5.48,0-11-.34-16.44.1-4.72.38-6-1.71-6.27-5.87-1-13.1-2-26.2-3.33-39.27-6.81-67.32-14-134.6-26.51-201.18-.68-3.66.07-5.1,3.85-5.57,9.08-1.13,18.16-2.17,27.3-2.64,7.44-.39,8.57.6,9.11,8,2.48,34.5,4.73,69,7.44,103.51,3,37.63,6.33,75.22,9.54,112.83.68,8,1.48,15.9,2.1,23.85C278.3,291.89,278.23,291.9,270.93,290.78Z"/><path class="cls-2" d="M616.22,36.75c16.21-.82,13.6-.85,14.66,13.12,2.57,33.66,5,67.32,7.65,101q3,39.28,6.31,78.56c1.57,18.89,3.21,37.78,5.06,56.64.45,4.59-.65,6.23-5.5,5.7-6.44-.69-12.95-.81-19.43-.93-2.81-.05-4.07-.74-4.34-3.87-1.83-21-3.73-42.05-5.89-63.05-3.33-32.42-7-64.79-11.35-97.09-3.75-27.84-7.7-55.66-13.14-83.23-.65-3.3.8-4.18,3.53-4.47C601.38,38.31,608.91,36.81,616.22,36.75Z"/><path class="cls-2" d="M603,296.86c1.45,3.37-.8,4.3-4.16,4.61-7.46.67-14.91,1.39-22.34,2.26-2.91.34-4.09-.61-4.67-3.56Q559.75,238,547.38,175.88c-.9-4.46.1-6.21,4.61-7a243.22,243.22,0,0,1,25.17-3.61c9.16-.68,10.3.26,11.7,9.11,5.47,34.34,8.57,69,12.11,103.52C601.59,284,602.26,290.11,603,296.86Z"/><path class="cls-2" d="M207.74,165.21c7,.07,7.7.54,9,8.25,4.06,24.46,6.44,49.14,9.13,73.78,1.68,15.37,3.16,30.77,4.84,46.15.83,7.56.76,7.7-6.82,8.35-6.46.55-12.92,1.19-19.36,2-2.91.35-4.1-.55-4.68-3.52q-12.21-62.7-24.65-125.34c-.53-2.68-.64-4.81,2.92-5.54C187.73,167.33,197.38,165.61,207.74,165.21Z"/><path class="cls-2" d="M331,243.32c0,19.65-.15,39.3.11,58.95.07,4.57-1.39,5.65-5.66,5.49-7.15-.26-14.33,0-21.49.24-2.81.1-3.74-.93-4-3.66q-5-55.42-10.18-110.83c-.53-5.8-1-11.6-1.66-17.39-.29-2.7.21-4.37,3.45-4.65,10.62-.94,21.22-2,31.87-.43,3.73.54,5.58,2,5.79,6.38C330.23,199.38,330.48,221.35,331,243.32Z"/><path class="cls-2" d="M202.46,149.7c-8.53.55-8.46.54-9.5-7.94-1.56-12.72-3.08-25.44-4.91-38.12-.61-4.26.55-6.33,4.92-6.3.34,0,.67-.08,1-.11,11.79-1.06,13.36.11,14.57,11.55,1.25,11.75,2.07,23.55,3.57,35.26.59,4.64-.88,6.05-5.16,5.68C205.46,149.59,204,149.7,202.46,149.7Z"/><path class="cls-2" d="M569.52,97.53h.5c9.23.1,9.18.1,10.12,9.46,1.22,12.08,2.4,24.17,3.87,36.22.53,4.38-.7,6.18-5.28,6.55-12.69,1-12.62,1.2-14.11-11.53-1.31-11.24-2.73-22.46-4.13-33.68-.85-6.82-.88-6.82,6-7,1,0,2,0,3,0Z"/><path class="cls-2" d="M328.35,129.53c0,7.15-.12,14.3.07,21.44.07,2.73-.53,3.83-3.49,3.94-14.94.55-14.89.62-15.21-14.08-.25-11.3-.49-22.61-1-33.9-.14-3.3.88-4.55,4.17-4.24,4,.37,7.95.53,11.93.75,3,.17,3.74,1.8,3.66,4.65-.2,7.14-.07,14.29-.07,21.44Z"/><path class="cls-2" d="M178.68,100.65c2-.51,3.12,1.08,3.59,4.12,2.21,14.11,4.1,28.27,5.39,42.5.22,2.52-.5,3.89-3.24,4.58-11.49,2.89-11.5,3-13.71-8.69s-4.23-23.2-6.54-34.76c-.78-3.89.08-6,4.33-6.23C171.47,102,174.41,101.31,178.68,100.65Z"/><path class="cls-2" d="M675.59,139.75c-.21,3.15-.75,6.32-.55,9.45.3,4.57-1.91,5.56-5.94,5.7-9.53.34-9.44.49-10.07-9.25-.79-12.29-1.61-24.57-2.71-36.83-.32-3.52.58-5,4.15-4.85a46.18,46.18,0,0,0,6-.26c8-.7,8.11-.72,8.19,7.08.09,9.65,0,19.3,0,28.94Z"/><path class="cls-2" d="M303,129.38c0,6.65-.14,13.31.06,20,.11,3.74-1.12,5.3-5,5.53-10.39.58-10.29.74-11-9.78-.76-11.27-1.68-22.53-2.6-33.78-.57-7-.61-7,6.16-7.37l2-.13c9.86-.59,9.92-.59,10.16,9.13.14,5.48,0,11,0,16.45Z"/><path class="cls-2" d="M559.53,147.8c.21,1.64-.17,3-2,3.47-3.54.87-7.09,1.73-10.65,2.5-2.23.47-2.38-1.38-2.64-2.78-2.77-14.84-5.47-29.71-8.24-44.55-.48-2.56.4-3.44,3-3.82,18.06-2.62,13.79-4.54,16.56,11.07A293,293,0,0,1,559.53,147.8Z"/></g></g></svg>